PathFileType	4	(X/Y/Z)	Kaydara	
DataRate	CameraRate	NumFrames	NumMarkers	Units	OrigDataRate	OrigDataStartFrame	OrigNumFrames	
60.00	60.00	5	74	mm	60.00	1302	200	
Frame#	Time	Z_lasi			Z_rasi			Z_rpsi			Z_lpsi			Z_fneck			Z_bneck			Z_fhead			Z_rhead			Z_lhead			Z_rshld			Z_relbtop			Z_relbext			Z_relblow			Z_rwrext			Z_rwrtop			Z_rwrlow			Z_lshld			Z_lelbext			Z_lelblow			Z_lelbtop			Z_lwrext			Z_lwrtop			Z_lwrlow			Z_rtopleg			Z_ltopleg			Z_rkneefr			Z_rkneebk			Z_rkneeis			Z_lkneefr			Z_lknssbk			Z_lkneeis			Z_rankfr			Z_rankis			Z_rankbk			Z_lankfr			Z_lankbk			Z_lankis			A_lasi			A_rasi			A_rpsi			A_lpsi			A_fneck			A_bneck			A_fhead			A_rhead			A_lhead			A_rshld			A_relbtop			A_relbext			A_relblow			A_rwrext			A_rwrtop			A_rwrlow			A_lshld			A_lelbext			A_lelblow			A_lelbtop			A_lwrext			A_lwrtop			A_lwrlow			A_rtopleg			A_ltopleg			A_rkneefr			A_rkneebk			A_rkneeis			A_lkneefr			A_lknssbk			A_lkneeis			A_rankfr			A_rankis			A_rankbk			A_lankfr			A_lankbk			A_lankis			
		X1	Y1	Z1	X2	Y2	Z2	X3	Y3	Z3	X4	Y4	Z4	X5	Y5	Z5	X6	Y6	Z6	X7	Y7	Z7	X8	Y8	Z8	X9	Y9	Z9	X10	Y10	Z10	X11	Y11	Z11	X12	Y12	Z12	X13	Y13	Z13	X14	Y14	Z14	X15	Y15	Z15	X16	Y16	Z16	X17	Y17	Z17	X18	Y18	Z18	X19	Y19	Z19	X20	Y20	Z20	X21	Y21	Z21	X22	Y22	Z22	X23	Y23	Z23	X24	Y24	Z24	X25	Y25	Z25	X26	Y26	Z26	X27	Y27	Z27	X28	Y28	Z28	X29	Y29	Z29	X30	Y30	Z30	X31	Y31	Z31	X32	Y32	Z32	X33	Y33	Z33	X34	Y34	Z34	X35	Y35	Z35	X36	Y36	Z36	X37	Y37	Z37	X38	Y38	Z38	X39	Y39	Z39	X40	Y40	Z40	X41	Y41	Z41	X42	Y42	Z42	X43	Y43	Z43	X44	Y44	Z44	X45	Y45	Z45	X46	Y46	Z46	X47	Y47	Z47	X48	Y48	Z48	X49	Y49	Z49	X50	Y50	Z50	X51	Y51	Z51	X52	Y52	Z52	X53	Y53	Z53	X54	Y54	Z54	X55	Y55	Z55	X56	Y56	Z56	X57	Y57	Z57	X58	Y58	Z58	X59	Y59	Z59	X60	Y60	Z60	X61	Y61	Z61	X62	Y62	Z62	X63	Y63	Z63	X64	Y64	Z64	X65	Y65	Z65	X66	Y66	Z66	X67	Y67	Z67	X68	Y68	Z68	X69	Y69	Z69	X70	Y70	Z70	X71	Y71	Z71	X72	Y72	Z72	X73	Y73	Z73	X74	Y74	Z74	

101	21.683	-224.91871	1082.14294	688.07663	-287.85711	1090.12688	491.88881	-119.47940	1112.20001	403.91914	-38.83934	1099.04472	634.52778	-216.94597	1447.20535	569.06788	-111.41076	1516.06430	558.02422	-326.82625	1629.08173	549.56112	-182.84552	1648.09402	464.79797	-171.02528	1660.10895	611.51081	-171.92217	1438.77533	356.34464	-143.74662	1117.71439	276.88251	-119.92148	1100.40291	331.41247	-210.99653	1129.54880	312.97419	-244.59156	891.96381	278.72023	-278.74369	905.81390	306.31979	-257.21767	900.69801	343.15083	-102.69611	1445.62332	745.66254	-83.17872	1123.56781	738.94325	-143.55351	1142.83897	804.19594	-74.57371	1139.16931	808.84277	-195.84934	878.09853	789.37035	-186.49288	873.80684	835.73151	-140.23400	873.88252	829.86160	-171.73561	924.00681	359.67220	-134.14145	895.03227	723.42834	-242.32241	421.46324	408.87405	-174.28070	451.37539	354.68048	-179.87656	429.31232	479.13925	-188.54570	447.07691	688.12828	-83.95123	472.02721	668.41385	-184.34332	442.71423	594.79065	-203.79080	180.46061	377.97306	-179.81159	174.57230	439.91745	-127.23103	172.35716	369.90891	-124.19664	163.69745	678.44124	-70.15036	166.40720	617.56523	-150.09825	173.73680	611.53542	-965.30380	1032.52800	483.35365	-961.45813	1038.50876	643.14323	-1121.24382	1036.46713	654.15794	-1089.06059	1041.87653	472.99149	-1043.90892	1379.78485	574.76341	-1180.59273	1413.37128	555.93365	-984.25774	1585.13321	587.27535	-1142.15744	1563.08411	652.52686	-1121.23825	1561.79108	490.02335	-1129.21890	1345.52048	744.54796	-1070.92300	1065.73540	790.17929	-1132.33299	1043.33038	786.71600	-1078.61214	1052.45338	735.42961	-929.53659	871.69746	757.75253	-908.65944	903.38730	732.18132	-934.30885	896.54259	702.35405	-1066.29890	1352.27234	394.93702	-1057.05574	1040.77965	344.15310	-1007.22221	1062.05177	396.55426	-1009.79691	1057.57118	341.86684	-921.84097	868.30910	446.77082	-903.95126	862.53754	408.25390	-874.02359	889.16557	430.53062	-1069.20395	875.76752	737.39449	-1023.84064	889.78027	401.35342	-1027.74223	451.05461	645.86174	-1135.90904	486.61739	689.47845	-1113.92647	486.38069	571.43036	-1012.17560	462.67803	513.08144	-1094.40834	480.99506	415.26222	-1118.82462	479.67617	539.41685	-1099.78043	165.91934	665.85358	-1132.11594	163.25674	599.56425	-1181.20163	154.06920	668.06618	-1066.88011	166.85434	457.79976	-1127.58324	168.91960	421.69304	-1126.84555	173.68834	511.32301 
102	21.700	-224.98730	1081.95869	687.90344	-288.31814	1089.76273	491.90796	-119.89449	1112.23259	404.16355	-39.02260	1099.05624	634.58828	-217.08954	1447.42966	569.56654	-111.15191	1515.61417	557.77248	-325.42141	1630.61523	550.89558	-182.53567	1647.89673	464.10431	-168.69413	1660.31860	611.03111	-172.19673	1438.31680	356.20571	-144.45381	1117.46155	276.00868	-119.44340	1100.08881	329.74777	-210.78514	1129.13399	313.62118	-245.55944	891.68961	280.50407	-279.24719	905.87234	308.59331	-257.09127	900.84053	345.11383	-102.85655	1445.18250	745.69298	-81.76953	1123.33725	740.47104	-143.32885	1142.79099	804.64966	-74.58842	1139.22066	810.55389	-197.63914	879.19167	789.41658	-188.42258	874.36302	835.71571	-142.03544	873.83560	829.68735	-171.82686	924.00398	359.83322	-134.23675	894.97932	723.58688	-242.40622	421.46744	408.83007	-174.38354	451.34258	354.65038	-179.83212	429.29119	479.18495	-188.52541	447.04620	688.04993	-83.82368	472.02065	668.40096	-184.08314	442.72732	594.69612	-203.84151	180.43341	378.02250	-179.83763	174.55765	439.93362	-127.26400	172.32651	369.86942	-124.22779	163.69856	678.45993	-70.11962	166.37848	617.63874	-150.03254	173.70579	611.50322	-964.83551	1032.66632	483.13572	-960.99884	1038.60649	643.15529	-1120.95299	1036.62445	654.40849	-1089.21333	1041.88103	473.19481	-1043.48999	1379.84283	574.85317	-1180.19402	1413.74863	556.37447	-983.41843	1584.93073	586.35830	-1140.78873	1563.70499	652.41936	-1120.98244	1561.71692	489.96704	-1129.20868	1345.51361	744.76418	-1075.63934	1064.84131	792.18658	-1136.94382	1043.34679	785.74501	-1080.41328	1052.07443	736.93604	-937.52174	866.84929	765.80368	-914.02466	898.96027	744.29604	-934.44450	893.96851	709.21021	-1067.05681	1352.38602	394.86488	-1062.43309	1041.08643	343.87550	-1009.43214	1061.43295	392.99480	-1015.36400	1057.30621	338.66253	-920.48164	866.85097	439.68987	-908.86826	859.95888	397.15500	-876.47362	886.21880	416.24397	-1069.13986	875.78026	737.52579	-1023.80791	889.79218	401.45782	-1027.68318	451.03386	645.97511	-1135.82100	486.58962	689.63081	-1113.84079	486.36257	571.57928	-1011.11145	462.80743	512.43076	-1094.40994	480.99117	415.31471	-1118.82317	479.63120	539.52263	-1099.78020	165.89806	665.90584	-1132.08435	163.26509	599.59892	-1181.18767	154.07259	668.14499	-1066.87164	166.83371	457.82818	-1127.58766	168.91760	421.73370	-1126.87401	173.68811	511.38824 
103	21.717	-225.25269	1081.84914	687.82715	-288.64908	1089.48952	491.94633	-120.20284	1112.20337	404.37698	-39.22491	1099.09950	634.64714	-217.38773	1447.60834	569.92256	-111.09384	1515.34225	557.62806	-324.28143	1632.10068	552.15302	-182.09572	1647.74460	463.87695	-166.72577	1660.44113	610.49664	-172.54181	1437.95395	356.16608	-145.10356	1117.36061	275.25517	-118.85746	1100.00710	328.32443	-210.60104	1128.84644	314.17475	-246.69800	891.67145	282.35605	-279.61517	906.08582	311.37615	-256.32526	901.14868	347.20345	-102.87222	1444.87961	745.66055	-80.00187	1123.19420	742.41119	-142.76466	1142.93533	805.04929	-74.14263	1139.55673	812.28455	-199.19376	880.70114	788.96774	-190.50079	875.13832	835.40451	-144.35946	873.86032	830.04646	-171.83458	923.95950	359.89376	-134.36788	894.99924	723.65540	-242.54305	421.42834	408.79532	-174.52898	451.28014	354.61174	-179.69051	429.17763	479.03954	-188.53693	447.04536	687.97867	-83.85710	471.94950	668.74298	-183.97596	442.73006	594.64287	-203.89395	180.40216	378.01689	-179.84980	174.50687	439.94205	-127.32552	172.30684	369.84272	-124.22636	163.67353	678.45779	-70.08298	166.36618	617.68665	-150.02368	173.70571	611.49750	-964.95911	1032.73300	483.56483	-960.28214	1038.72787	643.04039	-1120.34531	1036.72646	654.54872	-1088.85788	1042.03903	473.49476	-1043.09349	1379.84344	574.81506	-1179.76608	1413.95905	556.74847	-982.65266	1584.84589	585.74329	-1139.61731	1564.15161	652.50656	-1120.73593	1561.55487	490.06050	-1129.11392	1345.58151	745.01724	-1080.26489	1064.27902	794.22966	-1141.37558	1043.45093	784.68704	-1082.71240	1051.35338	738.66852	-946.41319	862.11372	773.97980	-920.15396	894.16260	755.29037	-939.01115	890.23376	720.20905	-1067.65732	1352.38235	394.58565	-1068.05618	1041.38573	343.66550	-1011.88873	1060.64552	389.12567	-1021.22978	1056.98792	335.01213	-922.16568	864.38545	428.72997	-914.47556	857.22977	385.28843	-880.04929	883.08289	401.43250	-1068.88023	875.73235	737.28630	-1023.72849	889.78806	401.59328	-1027.74658	450.96581	646.16196	-1135.83115	486.56166	689.77394	-1113.85887	486.34899	571.70967	-1011.21750	462.77882	512.55859	-1094.47678	480.99281	415.42679	-1118.89297	479.59309	539.64275	-1099.77867	165.87845	665.94475	-1132.10831	163.25848	599.64378	-1181.20583	154.06126	668.18199	-1066.88217	166.83409	457.87567	-1127.61658	168.91014	421.77620	-1126.92368	173.67100	511.43074 
104	21.733	-225.77076	1081.80717	687.93457	-288.78725	1089.32335	491.89423	-120.41143	1112.18956	404.60434	-39.48081	1099.17168	634.78512	-217.60330	1447.80746	570.17288	-111.09610	1515.11459	557.56226	-323.40450	1633.36380	553.31684	-181.86861	1647.58606	463.59539	-164.92138	1660.55801	610.10014	-172.97495	1437.77039	356.25267	-145.52182	1117.34398	274.74712	-118.53066	1099.97452	327.36984	-210.45095	1128.75351	314.94667	-247.89980	891.98036	284.33075	-279.90456	906.46149	314.45610	-255.37138	901.19629	349.47021	-102.81041	1444.82071	745.63705	-78.49975	1123.29094	744.41574	-141.88723	1143.33084	805.82329	-73.49897	1140.10727	814.24911	-201.32429	882.94151	788.66989	-192.81868	876.58470	834.78996	-146.45068	874.39941	829.90776	-171.76899	923.90823	359.91203	-134.56804	894.98871	723.68652	-242.68185	421.38847	408.71117	-174.66061	451.25172	354.54155	-179.67319	429.09134	478.94970	-188.67579	446.99650	687.96120	-83.78914	471.96892	668.68896	-184.01541	442.70927	594.67396	-203.92147	180.36247	377.98531	-179.90929	174.51307	439.90410	-127.35025	172.29687	369.86759	-124.27033	163.67414	678.47420	-70.10550	166.38002	617.75646	-150.03473	173.70417	611.51241	-964.52042	1032.44705	483.32211	-959.81056	1038.75267	642.88750	-1120.04021	1036.77834	654.94469	-1088.52913	1042.15393	473.84251	-1042.56508	1379.82910	574.62891	-1179.22241	1414.00970	557.08092	-981.91406	1584.76868	585.00820	-1138.65036	1564.25751	652.76474	-1120.61089	1561.50650	490.21748	-1129.00894	1345.75821	745.14801	-1084.66682	1063.95935	796.37550	-1145.30464	1043.75908	783.74092	-1084.88785	1050.81841	740.52505	-955.47234	857.29836	782.36343	-927.10999	888.92326	766.67122	-943.26126	886.06178	729.97551	-1068.23158	1352.33093	394.20547	-1073.30002	1041.74698	343.36418	-1013.42407	1060.64522	384.44637	-1026.97281	1056.73561	331.45981	-924.91356	861.51962	416.86268	-920.53604	854.75090	373.10806	-884.75670	880.00633	386.58443	-1068.97743	875.76118	738.00133	-1023.73146	889.85672	402.03522	-1027.73567	450.97584	646.17599	-1135.88104	486.52054	689.92096	-1113.95882	486.33224	571.90868	-1012.37930	462.57740	513.41206	-1094.53163	480.99342	415.55202	-1118.96248	479.54151	539.76303	-1099.77646	165.85518	665.93880	-1132.15103	163.25672	599.67724	-1181.23703	154.03708	668.22121	-1066.92703	166.84147	457.90409	-1127.64465	168.88939	421.83662	-1126.92696	173.63081	511.47655 
105	21.750	-225.50287	1081.59866	687.58957	-288.72807	1089.23317	491.78928	-120.51722	1112.20444	404.82239	-39.98134	1099.31213	634.90276	-217.81860	1447.96188	570.44411	-111.39378	1514.85123	557.65709	-322.63775	1634.37668	554.26872	-181.84727	1647.41852	463.31310	-163.47773	1660.56122	609.73431	-173.52566	1437.76688	356.44657	-145.85650	1117.40326	274.56034	-118.21773	1100.11421	326.85474	-210.36999	1128.78586	315.38176	-249.08772	892.48604	286.20686	-279.97175	906.88492	317.49641	-254.15907	901.23390	351.60858	-102.76133	1444.96735	745.57159	-76.73367	1123.71422	746.20224	-140.85105	1144.14574	806.82579	-72.43299	1140.87395	815.95108	-202.93886	885.24315	787.78709	-195.20132	878.44513	834.16054	-148.88882	875.15488	829.83192	-171.67334	923.87360	359.85527	-134.76369	894.97597	723.68210	-242.73802	421.38016	408.66772	-174.74508	451.26106	354.50775	-179.67258	429.04984	478.77876	-188.81296	446.93642	687.99377	-84.05184	471.96522	668.89259	-184.15277	442.67342	594.71096	-203.93742	180.35313	377.98145	-179.92771	174.51954	439.90700	-127.37835	172.30064	369.85809	-124.29034	163.67132	678.44528	-70.12864	166.41251	617.77843	-150.04211	173.70070	611.48685	-964.32541	1032.31110	483.46054	-959.27925	1038.65364	642.88513	-1119.51508	1036.84578	655.35507	-1088.42033	1042.06932	474.04823	-1041.95145	1379.74838	574.33475	-1178.62640	1413.92014	557.34806	-981.29013	1584.85535	584.59145	-1137.60551	1564.12918	653.16513	-1120.51758	1561.53946	490.45567	-1128.89214	1346.05865	745.17342	-1088.39348	1063.91678	798.15109	-1148.50624	1044.41605	783.49915	-1086.82892	1050.48264	742.33513	-965.74722	852.71339	791.65245	-934.74030	883.59329	777.81807	-948.49709	881.38199	740.06500	-1068.84621	1352.24045	393.84705	-1078.28087	1042.27386	343.08338	-1015.16335	1060.42831	379.92424	-1032.50183	1056.64795	328.23635	-929.22905	858.23494	403.44791	-927.23671	852.38380	360.51952	-890.27557	876.91689	371.74023	-1068.81554	875.73250	738.35228	-1023.60733	889.84543	401.84998	-1027.93877	450.83572	646.36795	-1135.93651	486.48140	690.10796	-1114.10011	486.29616	572.08996	-1012.32368	462.56363	513.43517	-1094.58267	480.99655	415.69519	-1119.08432	479.51958	539.89609	-1099.81293	165.82590	665.96184	-1132.21260	163.21898	599.72034	-1181.27274	153.99315	668.28568	-1066.94557	166.85455	457.96463	-1127.64580	168.87407	421.88946	-1126.93939	173.58942	511.53824 
